<svg width="25" height="25" viewBox="0 0 25 25" fill="none" xmlns="http://www.w3.org/2000/svg">
<g id="github" clip-path="url(#clip0_4_69)">
<path id="Vector" d="M12.4999 0C9.53181 0.000126195 6.66057 1.08311 4.39996 3.05518C2.13935 5.02724 0.636906 7.7597 0.161449 10.7636C-0.314007 13.7676 0.268554 16.8469 1.8049 19.4508C3.34124 22.0546 5.7311 24.013 8.54687 24.9755C9.17187 25.0876 9.40624 24.7032 9.40624 24.3667C9.40624 24.0623 9.39061 23.053 9.39061 21.9797C6.24999 22.5724 5.4375 21.1948 5.1875 20.4738C4.91009 19.7727 4.47035 19.1514 3.90626 18.6635C3.46876 18.4232 2.84376 17.8305 3.89062 17.8145C4.29035 17.859 4.67373 18.0016 5.00829 18.2302C5.34284 18.4589 5.6187 18.7669 5.81249 19.1281C5.98346 19.443 6.21334 19.7202 6.48898 19.9438C6.76461 20.1675 7.08058 20.3332 7.41877 20.4314C7.75697 20.5296 8.11074 20.5584 8.45982 20.5162C8.8089 20.474 9.14643 20.3616 9.45307 20.1854C9.50718 19.5339 9.79039 18.9247 10.25 18.4713C7.46873 18.1509 4.5625 17.0455 4.5625 12.1433C4.54494 10.8696 5.00336 9.63724 5.84374 8.699C5.4616 7.59197 5.50631 6.37708 5.96874 5.30272C5.96874 5.30272 7.01557 4.96628 9.40622 6.61638C11.4516 6.03962 13.6108 6.03962 15.6562 6.61638C18.0468 4.95028 19.0936 5.30272 19.0936 5.30272C19.5561 6.37707 19.6009 7.59198 19.2187 8.699C20.0616 9.63564 20.5204 10.8691 20.4999 12.1433C20.4999 17.0615 17.578 18.1509 14.7968 18.4713C15.0951 18.7813 15.3249 19.1535 15.4705 19.5626C15.616 19.9717 15.6741 20.4082 15.6405 20.8423C15.6405 22.5565 15.6249 23.9342 15.6249 24.3668C15.6249 24.7032 15.8593 25.1037 16.4843 24.9755C19.2951 24.0052 21.6781 22.0422 23.2079 19.437C24.7377 16.8319 25.3147 13.7541 24.836 10.7531C24.3572 7.75204 22.8538 5.02313 20.5942 3.05346C18.3346 1.0838 15.4658 0.00158268 12.4999 0Z" fill="#B7AB98"/>
</g>
<defs>
<clipPath id="clip0_4_69">
<rect width="25" height="25" fill="white"/>
</clipPath>
</defs>
</svg>
