<svg width="26" height="26" viewBox="0 0 26 26" fill="none" xmlns="http://www.w3.org/2000/svg">
<g id="Instagram" clip-path="url(#clip0_4_63)">
<path id="Vector" d="M17.465 0.191532L8.09058 0.08706C6.0187 0.0639703 4.02252 0.864875 2.54115 2.31359C1.05979 3.7623 0.214594 5.74014 0.191504 7.81201L0.0870325 17.1864C0.0639427 19.2583 0.864848 21.2545 2.31356 22.7359C3.76227 24.2172 5.74011 25.0624 7.81199 25.0855L17.1864 25.19C19.2583 25.2131 21.2545 24.4122 22.7358 22.9635C24.2172 21.5147 25.0624 19.5369 25.0855 17.465L25.19 8.09061C25.213 6.01873 24.4121 4.02254 22.9634 2.54118C21.5147 1.05981 19.5369 0.214622 17.465 0.191532ZM22.7419 17.4389C22.7083 20.4543 20.228 22.88 17.2125 22.8464L7.83811 22.7419C4.82267 22.7083 2.39703 20.228 2.43064 17.2126L2.53511 7.83813C2.56871 4.8227 5.04902 2.39706 8.06446 2.43066L17.4389 2.53514C20.4543 2.56874 22.88 5.04905 22.8463 8.06449L22.7419 17.4389Z" fill="#B7AB98"/>
<path id="Vector_2" d="M12.7082 6.38892C11.0507 6.37045 9.45372 7.01117 8.26863 8.17014C7.08354 9.32911 6.40738 10.9114 6.38891 12.5689C6.37044 14.2264 7.01116 15.8233 8.17013 17.0084C9.3291 18.1935 10.9114 18.8697 12.5689 18.8881C14.2264 18.9066 15.8233 18.2659 17.0084 17.1069C18.1935 15.948 18.8697 14.3657 18.8881 12.7082C18.9066 11.0507 18.2659 9.45373 17.1069 8.26864C15.9479 7.08355 14.3657 6.40739 12.7082 6.38892ZM12.595 16.5445C11.5594 16.5318 10.5713 16.1088 9.84716 15.3684C9.12307 14.628 8.72221 13.6306 8.73251 12.595C8.75652 10.4405 10.5291 8.70853 12.6821 8.73253C14.835 8.75652 16.5685 10.5275 16.5445 12.6821C16.5205 14.8351 14.748 16.5685 12.595 16.5445Z" fill="#B7AB98"/>
<path id="Vector_3" d="M19.4224 6.82782C19.8823 6.83294 20.2593 6.46426 20.2645 6.00434C20.2696 5.54442 19.9009 5.16742 19.441 5.1623C18.9811 5.15717 18.6041 5.52585 18.5989 5.98578C18.5938 6.4457 18.9625 6.82269 19.4224 6.82782Z" fill="#B7AB98"/>
</g>
<defs>
<clipPath id="clip0_4_63">
<rect width="25" height="25" fill="white" transform="translate(0.278564) rotate(0.638499)"/>
</clipPath>
</defs>
</svg>
