<svg width="25" height="25" viewBox="0 0 25 25" fill="none" xmlns="http://www.w3.org/2000/svg">
<g id="twitter">
<path id="Vector" d="M22.8882 6.60061C22.1068 6.93188 21.2804 7.15087 20.4347 7.25077C21.3269 6.72995 21.9955 5.91061 22.3164 4.94474C21.478 5.43242 20.5602 5.77602 19.603 5.96061C18.9631 5.28259 18.1111 4.83126 17.1804 4.67741C16.2498 4.52356 15.2932 4.6759 14.4607 5.11052C13.6282 5.54514 12.9669 6.23747 12.5805 7.07892C12.1941 7.92037 12.1044 8.86336 12.3255 9.75998C10.6303 9.67619 8.97213 9.24488 7.45864 8.49406C5.94516 7.74323 4.61024 6.6897 3.54061 5.40188C3.16545 6.04205 2.96831 6.76703 2.96881 7.50474C2.96748 8.18983 3.13954 8.8646 3.46966 9.46899C3.79979 10.0734 4.27774 10.5886 4.86095 10.9689C4.18309 10.9508 3.5197 10.7731 2.92723 10.4508V10.5016C2.93231 11.4615 3.27654 12.3902 3.9017 13.1306C4.52685 13.8711 5.39455 14.3778 6.35803 14.5651C5.98714 14.6753 5.60208 14.7335 5.21443 14.7378C4.94609 14.7347 4.67841 14.7109 4.41391 14.6666C4.68828 15.4924 5.21923 16.214 5.93289 16.7311C6.64655 17.2482 7.50742 17.535 8.39571 17.5517C6.89573 18.705 5.04381 19.3344 3.13516 19.3397C2.78764 19.3408 2.4404 19.3204 2.09552 19.2787C4.04424 20.5082 6.31521 21.1608 8.63483 21.1581C10.2355 21.1743 11.8235 20.8787 13.306 20.2886C14.7885 19.6984 16.1358 18.8255 17.2692 17.7209C18.4026 16.6162 19.2994 15.302 19.9071 13.8549C20.5149 12.4078 20.8215 10.8568 20.809 9.29267C20.809 9.11998 20.809 8.93712 20.809 8.75426C21.6248 8.15978 22.3284 7.43101 22.8882 6.60061Z" fill="#B7AB98"/>
</g>
</svg>
